<svg width="20" height="20" viewBox="0 0 20 20" fill="none" xmlns="http://www.w3.org/2000/svg">
<mask id="mask0" mask-type="alpha" maskUnits="userSpaceOnUse" x="0" y="0" width="20" height="20">
<path d="M10 20C15.5228 20 20 15.5228 20 10C20 4.47715 15.5228 0 10 0C4.47715 0 0 4.47715 0 10C0 15.5228 4.47715 20 10 20Z" fill="white"/>
</mask>
<g mask="url(#mask0)">
<path d="M10 20C15.5228 20 20 15.5228 20 10C20 4.47715 15.5228 0 10 0C4.47715 0 0 4.47715 0 10C0 15.5228 4.47715 20 10 20Z" fill="#FA6002"/>
<path d="M13.3814 -7.57638L3.33298 -2.72339L12.5469 17.7416L22.5953 12.8886L13.3814 -7.57638Z" fill="#05575D"/>
<path d="M4.76592 0.836618L1.54999 -0.716553L-3.71511 10.9777L-0.499181 12.5309L4.76592 0.836618Z" fill="#FB1972"/>
<path fill-rule="evenodd" clip-rule="evenodd" d="M8.51419 21.7507L6.04927 24.3944L-2.91247 15.4311L-0.44755 12.7874L8.51419 21.7507Z" fill="#008E86"/>
</g>
</svg>
