<svg width="24" height="24" viewBox="0 0 24 24" fill="none" xmlns="http://www.w3.org/2000/svg">
<path fill-rule="evenodd" clip-rule="evenodd" d="M22 12C22 17.5228 17.5228 22 12 22C6.47715 22 2 17.5228 2 12C2 6.47715 6.47715 2 12 2C17.5228 2 22 6.47715 22 12ZM24 12C24 18.6274 18.6274 24 12 24C5.37258 24 0 18.6274 0 12C0 5.37258 5.37258 0 12 0C18.6274 0 24 5.37258 24 12ZM11 16.9L10.9923 16.8984C8.71391 16.4322 7 14.4162 7 12C7 8 11 5 15.5 5C14 5.5 13.3333 6.40001 13 7.10002C15.2822 7.56329 17 9.58104 17 12C17 16 13 19 8.5 19C10 18.5 10.6667 17.6 11 16.9ZM14 12C14 13.1046 13.1046 14 12 14C10.8954 14 10 13.1046 10 12C10 10.8954 10.8954 10 12 10C13.1046 10 14 10.8954 14 12Z" fill="#E3E4E5"/>
</svg>
