<svg width="15" height="16" viewBox="0 0 15 16" fill="none" xmlns="http://www.w3.org/2000/svg">
<path d="M2.40886 2.90882C4.56164 0.756039 7.7385 0.251492 10.3713 1.39518L8.99739 2.76909C7.15982 2.24488 5.1004 2.70629 3.65337 4.15332C1.74077 6.06592 1.55004 9.04835 3.08119 11.1743L5.12415 9.13136L6.36866 10.3759L3.06876 13.6758C2.83996 13.4967 2.61951 13.3018 2.40886 13.0912C-0.402918 10.2794 -0.402918 5.72059 2.40886 2.90882Z" fill="white"/>
<path d="M4.62874 14.6048C7.26155 15.7485 10.4384 15.2439 12.5912 13.0912C15.403 10.2794 15.403 5.72059 12.5912 2.90882C12.3805 2.69817 12.1601 2.5033 11.9313 2.32421L8.6314 5.62411L9.87591 6.86861L11.9189 4.82565C13.45 6.95162 13.2593 9.93405 11.3467 11.8466C9.89966 13.2937 7.84023 13.7551 6.00266 13.2309L4.62874 14.6048Z" fill="white"/>
<path d="M8.74454 7.99999L7.50003 6.75548L6.25552 7.99999L7.50003 9.24449L8.74454 7.99999Z" fill="white"/>
<path d="M5.12415 4.3796L6.36866 5.62411L5.12415 6.86862L3.87964 5.62411L5.12415 4.3796Z" fill="white"/>
<path d="M11.1204 10.3759L9.87591 9.13136L8.6314 10.3759L9.87591 11.6204L11.1204 10.3759Z" fill="white"/>
</svg>
