<svg width="24" height="24" viewBox="0 0 24 24" fill="none" xmlns="http://www.w3.org/2000/svg">
<path d="M1.59289 0H0.5C0.223858 0 0 0.223857 0 0.5V23.5C0 23.7761 0.223858 24 0.5 24H3.39289C3.5255 24 3.65268 23.9473 3.74645 23.8536L9.20251 18.3975C9.3392 18.2608 9.3392 18.0392 9.20251 17.9025L6.99749 15.6975C6.8608 15.5608 6.6392 15.5608 6.50251 15.6975L4.02678 18.1732C3.86929 18.3307 3.6 18.2192 3.6 17.9964V7.80355C3.6 7.58083 3.86929 7.46929 4.02678 7.62678L20.2536 23.8536C20.3473 23.9473 20.4745 24 20.6071 24H23.5C23.7761 24 24 23.7761 24 23.5V0.5C24 0.223857 23.7761 0 23.5 0H22.4071C22.2745 0 22.1473 0.0526784 22.0536 0.146447L20.4 1.8L14.7975 7.40251C14.6608 7.5392 14.6608 7.7608 14.7975 7.89749L17.0025 10.1025C17.1392 10.2392 17.3608 10.2392 17.4975 10.1025L19.9732 7.62678C20.1307 7.46929 20.4 7.58083 20.4 7.80355V17.9964C20.4 18.2192 20.1307 18.3307 19.9732 18.1732L1.94645 0.146447C1.85268 0.0526784 1.7255 0 1.59289 0Z" fill="#E3E4E5"/>
</svg>
