<svg width="24" height="24" viewBox="0 0 24 24" fill="none" xmlns="http://www.w3.org/2000/svg">
<path fill-rule="evenodd" clip-rule="evenodd" d="M11.5 1C9.567 1 8 2.567 8 4.5V5H3C1.34314 5 0 6.34315 0 8V12V14V20C0 21.6569 1.34315 23 3 23H21C22.6569 23 24 21.6569 24 20V14V12V8C24 6.34315 22.6569 5 21 5H16V4.5C16 2.567 14.433 1 12.5 1H11.5ZM22 12V8C22 7.44772 21.5523 7 21 7H3C2.44772 7 2 7.44772 2 8V12H8V10H16V12H22ZM2 14V20C2 20.5523 2.44772 21 3 21H21C21.5523 21 22 20.5523 22 20V14H16V16H8V14H2ZM10 4.5C10 3.67157 10.6716 3 11.5 3H12.5C13.3284 3 14 3.67157 14 4.5V5H10V4.5ZM10 12H14V14H10V12Z" fill="#E3E4E5"/>
</svg>
