<svg width="24" height="24" viewBox="0 0 24 24" fill="none" xmlns="http://www.w3.org/2000/svg">
<mask id="path-1-inside-1" fill="white">
<path fill-rule="evenodd" clip-rule="evenodd" d="M12 24C18.6274 24 24 18.6274 24 12C24 5.37258 18.6274 0 12 0C5.37258 0 0 5.37258 0 12C0 18.6274 5.37258 24 12 24ZM10.8 17.88L10.7908 17.8781C8.05669 17.3186 6 14.8995 6 12C6 7.20001 10.8 3.60001 16.2 3.60001C14.4 4.20001 13.6 5.28002 13.2 6.12003C15.9387 6.67595 18 9.09726 18 12C18 16.8 13.2 20.4 7.8 20.4C9.6 19.8 10.4 18.72 10.8 17.88ZM14.4 12C14.4 13.3255 13.3255 14.4 12 14.4C10.6745 14.4 9.6 13.3255 9.6 12C9.6 10.6745 10.6745 9.60001 12 9.60001C13.3255 9.60001 14.4 10.6745 14.4 12Z"/>
</mask>
<path fill-rule="evenodd" clip-rule="evenodd" d="M12 24C18.6274 24 24 18.6274 24 12C24 5.37258 18.6274 0 12 0C5.37258 0 0 5.37258 0 12C0 18.6274 5.37258 24 12 24ZM10.8 17.88L10.7908 17.8781C8.05669 17.3186 6 14.8995 6 12C6 7.20001 10.8 3.60001 16.2 3.60001C14.4 4.20001 13.6 5.28002 13.2 6.12003C15.9387 6.67595 18 9.09726 18 12C18 16.8 13.2 20.4 7.8 20.4C9.6 19.8 10.4 18.72 10.8 17.88ZM14.4 12C14.4 13.3255 13.3255 14.4 12 14.4C10.6745 14.4 9.6 13.3255 9.6 12C9.6 10.6745 10.6745 9.60001 12 9.60001C13.3255 9.60001 14.4 10.6745 14.4 12Z" fill="#79E8EA"/>
<path d="M10.7908 17.8781L10.3898 19.8375L10.3922 19.838L10.7908 17.8781ZM10.8 17.88L12.6057 18.7398L13.7057 16.43L11.1986 15.9201L10.8 17.88ZM16.2 3.60001L16.8325 5.49737L16.2 1.60001V3.60001ZM13.2 6.12003L11.3943 5.26017L10.2939 7.57092L12.8021 8.08006L13.2 6.12003ZM7.8 20.4L7.16754 18.5026L7.8 22.4V20.4ZM22 12C22 17.5228 17.5228 22 12 22V26C19.732 26 26 19.732 26 12H22ZM12 2C17.5228 2 22 6.47715 22 12H26C26 4.26801 19.732 -2 12 -2V2ZM2 12C2 6.47715 6.47715 2 12 2V-2C4.26801 -2 -2 4.26801 -2 12H2ZM12 22C6.47715 22 2 17.5228 2 12H-2C-2 19.732 4.26801 26 12 26V22ZM10.3922 19.838L10.4014 19.8399L11.1986 15.9201L11.1894 15.9182L10.3922 19.838ZM4 12C4 15.8683 6.74357 19.0914 10.3898 19.8375L11.1917 15.9187C9.36981 15.5459 8 13.9307 8 12H4ZM16.2 1.60001C10.135 1.60001 4 5.70204 4 12H8C8 8.69797 11.465 5.60001 16.2 5.60001V1.60001ZM15.0057 6.97989C15.2164 6.53744 15.6389 5.89524 16.8325 5.49737L15.5675 1.70264C13.1611 2.50477 11.9836 4.0226 11.3943 5.26017L15.0057 6.97989ZM20 12C20 8.12735 17.2503 4.9014 13.5979 4.16L12.8021 8.08006C14.6271 8.4505 16 10.0672 16 12H20ZM7.8 22.4C13.865 22.4 20 18.298 20 12H16C16 15.302 12.535 18.4 7.8 18.4V22.4ZM8.99428 17.0201C8.78359 17.4626 8.36115 18.1048 7.16754 18.5026L8.43246 22.2974C10.8389 21.4952 12.0164 19.9774 12.6057 18.7398L8.99428 17.0201ZM12 16.4C14.4301 16.4 16.4 14.4301 16.4 12H12.4C12.4 12.2209 12.2209 12.4 12 12.4V16.4ZM7.6 12C7.6 14.4301 9.56995 16.4 12 16.4V12.4C11.7791 12.4 11.6 12.2209 11.6 12H7.6ZM12 7.60001C9.56995 7.60001 7.6 9.56995 7.6 12H11.6C11.6 11.7791 11.7791 11.6 12 11.6V7.60001ZM16.4 12C16.4 9.56995 14.4301 7.60001 12 7.60001V11.6C12.2209 11.6 12.4 11.7791 12.4 12H16.4Z" fill="#79E8EA" mask="url(#path-1-inside-1)"/>
</svg>
