<svg width="24" height="24" viewBox="0 0 24 24" fill="none" xmlns="http://www.w3.org/2000/svg">
<path fill-rule="evenodd" clip-rule="evenodd" d="M8 4.5C8 2.567 9.567 1 11.5 1H12.5C14.433 1 16 2.567 16 4.5V5H21C22.6569 5 24 6.34315 24 8V11.75H16V10H8V11.75H0V8C0 6.34315 1.34315 5 3 5H8V4.5ZM16 14.25H24V20C24 21.6569 22.6569 23 21 23H3C1.34315 23 0 21.6569 0 20V14.25H8V16H16V14.25ZM14 12H10V14H14V12ZM11.5 3C10.6716 3 10 3.67157 10 4.5V5H14V4.5C14 3.67157 13.3284 3 12.5 3H11.5Z" fill="#79E8EA"/>
</svg>
