<svg width="24" height="24" viewBox="0 0 24 24" fill="none" xmlns="http://www.w3.org/2000/svg">
<mask id="path-1-inside-1" fill="white">
<path fill-rule="evenodd" clip-rule="evenodd" d="M24 11.9999C24 18.6273 18.6274 23.9999 12 23.9999C5.37258 23.9999 0 18.6273 0 11.9999C0 5.88051 4.58053 0.830921 10.5 0.0927734V8.49993H8.10999L11.9991 12.389L15.8882 8.49993H13.5V0.0927734C19.4195 0.830921 24 5.88051 24 11.9999ZM17 17.4999V14.4999H7V17.4999H17Z"/>
</mask>
<path fill-rule="evenodd" clip-rule="evenodd" d="M24 11.9999C24 18.6273 18.6274 23.9999 12 23.9999C5.37258 23.9999 0 18.6273 0 11.9999C0 5.88051 4.58053 0.830921 10.5 0.0927734V8.49993H8.10999L11.9991 12.389L15.8882 8.49993H13.5V0.0927734C19.4195 0.830921 24 5.88051 24 11.9999ZM17 17.4999V14.4999H7V17.4999H17Z" fill="#79E8EA"/>
<path d="M10.5 0.0927734H12.5V-2.17211L10.2525 -1.89186L10.5 0.0927734ZM10.5 8.49993V10.4999H12.5V8.49993H10.5ZM8.10999 8.49993V6.49993H3.28156L6.69577 9.91415L8.10999 8.49993ZM11.9991 12.389L10.5849 13.8032L11.9991 15.2174L13.4133 13.8032L11.9991 12.389ZM15.8882 8.49993L17.3024 9.91415L20.7166 6.49993H15.8882V8.49993ZM13.5 8.49993H11.5V10.4999H13.5V8.49993ZM13.5 0.0927734L13.7475 -1.89186L11.5 -2.17211V0.0927734H13.5ZM17 14.4999H19V12.4999H17V14.4999ZM17 17.4999V19.4999H19V17.4999H17ZM7 14.4999V12.4999H5V14.4999H7ZM7 17.4999H5V19.4999H7V17.4999ZM12 25.9999C19.732 25.9999 26 19.7319 26 11.9999H22C22 17.5228 17.5228 21.9999 12 21.9999V25.9999ZM-2 11.9999C-2 19.7319 4.26801 25.9999 12 25.9999V21.9999C6.47715 21.9999 2 17.5228 2 11.9999H-2ZM10.2525 -1.89186C3.34443 -1.03043 -2 4.85909 -2 11.9999H2C2 6.90192 5.81664 2.69227 10.7475 2.0774L10.2525 -1.89186ZM12.5 8.49993V0.0927734H8.5V8.49993H12.5ZM8.10999 10.4999H10.5V6.49993H8.10999V10.4999ZM13.4133 10.9748L9.5242 7.08572L6.69577 9.91415L10.5849 13.8032L13.4133 10.9748ZM14.4739 7.08572L10.5849 10.9748L13.4133 13.8032L17.3024 9.91415L14.4739 7.08572ZM13.5 10.4999H15.8882V6.49993H13.5V10.4999ZM11.5 0.0927734V8.49993H15.5V0.0927734H11.5ZM26 11.9999C26 4.85909 20.6556 -1.03043 13.7475 -1.89186L13.2525 2.0774C18.1834 2.69227 22 6.90192 22 11.9999H26ZM15 14.4999V17.4999H19V14.4999H15ZM7 16.4999H17V12.4999H7V16.4999ZM9 17.4999V14.4999H5V17.4999H9ZM17 15.4999H7V19.4999H17V15.4999Z" fill="#79E8EA" mask="url(#path-1-inside-1)"/>
</svg>
