<svg width="20" height="14" viewBox="0 0 20 14" fill="none" xmlns="http://www.w3.org/2000/svg">
<path d="M4.09589 3.26691C7.35664 0.0743614 12.6434 0.0743614 15.9041 3.26691L16.2965 3.65113C16.4596 3.81076 16.4596 4.06957 16.2965 4.22919L14.9541 5.54356C14.8726 5.62338 14.7404 5.62338 14.6589 5.54356L14.1189 5.01482C11.8441 2.78762 8.15593 2.78762 5.88114 5.01482L5.30281 5.58106C5.22129 5.66087 5.08912 5.66087 5.0076 5.58106L3.66515 4.26669C3.50212 4.10706 3.50212 3.84826 3.66515 3.68863L4.09589 3.26691ZM18.6804 5.98516L19.8752 7.15495C20.0382 7.31458 20.0382 7.57338 19.8752 7.73301L14.4879 13.0077C14.3248 13.1674 14.0605 13.1674 13.8974 13.0078C13.8974 13.0078 13.8974 13.0078 13.8974 13.0078L10.0738 9.26411C10.0331 9.22421 9.96698 9.22421 9.92622 9.26411C9.92622 9.26411 9.92622 9.26411 9.92622 9.26411L6.10269 13.0077C5.93966 13.1674 5.67532 13.1674 5.51228 13.0078C5.51228 13.0078 5.51228 13.0078 5.51228 13.0078L0.124781 7.73294C-0.0382569 7.57331 -0.0382569 7.31451 0.124781 7.15488L1.31956 5.98509C1.4826 5.82546 1.74694 5.82546 1.90997 5.98509L5.73364 9.72878C5.7744 9.76869 5.84049 9.76869 5.88125 9.72878C5.88125 9.72878 5.88125 9.72878 5.88125 9.72878L9.70472 5.98509C9.86776 5.82546 10.1321 5.82545 10.2951 5.98507C10.2951 5.98508 10.2951 5.98508 10.2951 5.98508L14.1188 9.72878C14.1596 9.76868 14.2256 9.76868 14.2664 9.72878L18.09 5.98516C18.253 5.82553 18.5174 5.82553 18.6804 5.98516Z" fill="#3B99FC"/>
</svg>
